<svg width="40" height="40" viewBox="0 0 40 40" fill="none" xmlns="http://www.w3.org/2000/svg">
<path d="M19.8674 28.417C19.1919 28.417 18.6318 27.8568 18.6318 27.1814V18.9446C18.6318 18.2692 19.1919 17.7091 19.8674 17.7091C20.5428 17.7091 21.1029 18.2692 21.1029 18.9446V27.1814C21.1029 27.8568 20.5428 28.417 19.8674 28.417Z" fill="#121212"/>
<path d="M23.8866 24.2986H15.6498C14.9744 24.2986 14.4143 23.7385 14.4143 23.063C14.4143 22.3876 14.9744 21.8275 15.6498 21.8275H23.8866C24.562 21.8275 25.1222 22.3876 25.1222 23.063C25.1222 23.7385 24.562 24.2986 23.8866 24.2986Z" fill="#121212"/>
<path d="M28.005 37.4775H11.5314C4.26655 37.4775 2.05908 35.27 2.05908 28.0051V11.5315C2.05908 4.26667 4.26655 2.0592 11.5314 2.0592H14.0024C16.8853 2.0592 17.7914 2.9982 18.9445 4.53024L21.4156 7.82497C21.9592 8.5498 22.0416 8.64865 23.0629 8.64865H28.005C35.2699 8.64865 37.4773 10.8561 37.4773 18.121V28.0051C37.4773 35.27 35.2699 37.4775 28.005 37.4775ZM11.5314 4.53024C5.65033 4.53024 4.53012 5.65045 4.53012 11.5315V28.0051C4.53012 33.8862 5.65033 35.0064 11.5314 35.0064H28.005C33.8861 35.0064 35.0063 33.8862 35.0063 28.0051V18.121C35.0063 12.2399 33.8861 11.1197 28.005 11.1197H23.0629C20.9543 11.1197 20.2624 10.3948 19.4387 9.30759L16.9677 6.01287C16.1111 4.87619 15.864 4.53024 14.0024 4.53024H11.5314Z" fill="#121212"/>
</svg>
